<svg width="482" height="547" viewBox="0 0 482 547" fill="none" xmlns="http://www.w3.org/2000/svg">
<path d="M307 121.077C307 113.855 312.855 108 320.077 108H466.974C474.197 108 480.051 113.855 480.051 121.077V468.923C480.051 476.145 474.197 482 466.974 482H320.077C312.855 482 307 476.145 307 468.923V121.077Z" fill="#3A4245"/>
<path d="M309.615 121.077C309.615 115.299 314.299 110.615 320.077 110.615H466.974C472.752 110.615 477.436 115.299 477.436 121.077V468.923C477.436 474.701 472.752 479.384 466.974 479.384H320.077C314.299 479.384 309.615 474.701 309.615 468.923V121.077Z" fill="#121515"/>
<path d="M480.051 244H480.487C480.968 244 481.358 244.339 481.358 244.757L481.358 265.909C481.358 266.328 480.968 266.667 480.487 266.667H480.051L480.051 244Z" fill="#C4C4C4"/>
<path d="M480.051 180.359H480.487C480.968 180.359 481.358 181.004 481.358 181.801L481.358 222.071C481.358 222.867 480.968 223.513 480.487 223.513H480.051L480.051 180.359Z" fill="#C4C4C4"/>
<mask id="mask0" mask-type="alpha" maskUnits="userSpaceOnUse" x="312" y="113" width="163" height="361">
<path d="M312.666 125.768C312.666 119.268 317.935 113.999 324.435 113.999H462.615C469.115 113.999 474.384 119.268 474.384 125.768V461.409C474.384 467.909 469.115 473.178 462.615 473.178H324.435C317.935 473.178 312.666 467.909 312.666 461.409V125.768Z" fill="white"/>
</mask>
<g mask="url(#mask0)">
<path d="M312.922 125.571C312.922 119.071 318.191 113.802 324.691 113.802H462.871C469.371 113.802 474.64 119.071 474.64 125.571V461.212C474.64 467.712 469.371 472.981 462.871 472.981H324.691C318.191 472.981 312.922 467.712 312.922 461.212V125.571Z" fill="#CAD3D2"/>
<path d="M380.388 313.094C379.534 313.094 378.84 312.4 378.84 311.546C378.84 310.692 379.534 309.999 380.388 309.999H388.712C391.267 309.999 393.589 311.043 395.271 312.725C396.953 314.408 397.998 316.729 397.998 319.284V327.437C397.998 328.291 397.304 328.985 396.45 328.985C395.596 328.985 394.903 328.291 394.903 327.437V319.284C394.903 317.583 394.206 316.036 393.083 314.914C391.961 313.792 390.413 313.094 388.712 313.094H380.388ZM394.903 357.705C394.903 356.851 395.596 356.158 396.45 356.158C397.304 356.158 397.998 356.851 397.998 357.705V365.713C397.998 368.268 396.953 370.589 395.271 372.272C393.589 373.954 391.267 374.999 388.712 374.999H380.331C379.476 374.999 378.783 374.305 378.783 373.451C378.783 372.597 379.476 371.903 380.331 371.903H388.712C390.413 371.903 391.961 371.207 393.083 370.083C394.205 368.961 394.903 367.414 394.903 365.713V357.705ZM350.277 371.903C351.131 371.903 351.825 372.597 351.825 373.451C351.825 374.305 351.131 374.999 350.277 374.999H342.285C339.73 374.999 337.409 373.954 335.727 372.272C334.045 370.589 333 368.268 333 365.713V357.705C333 356.851 333.693 356.158 334.548 356.158C335.402 356.158 336.095 356.851 336.095 357.705V365.713C336.095 367.414 336.792 368.961 337.915 370.083C339.037 371.205 340.585 371.903 342.285 371.903H350.277ZM336.095 327.306C336.095 328.16 335.402 328.853 334.548 328.853C333.693 328.853 333 328.16 333 327.306V319.284C333 316.729 334.045 314.408 335.727 312.725C337.409 311.043 339.73 309.999 342.285 309.999H350.514C351.368 309.999 352.061 310.692 352.061 311.546C352.061 312.4 351.368 313.094 350.514 313.094H342.285C340.585 313.094 339.037 313.79 337.915 314.914C336.793 316.036 336.095 317.583 336.095 319.284V327.306ZM352.15 329.293C352.933 329.293 353.575 329.933 353.575 330.718V335.262C353.575 336.045 352.934 336.687 352.15 336.687C351.366 336.687 350.724 336.047 350.724 335.262V330.718C350.724 329.935 351.365 329.293 352.15 329.293ZM365.016 331.02C365.019 330.169 365.712 329.482 366.564 329.485C367.415 329.488 368.102 330.181 368.099 331.032L368.009 343.751C368.003 344.679 367.958 345.95 367.384 347.097C366.714 348.435 365.479 349.455 363.171 349.393C362.32 349.373 361.645 348.667 361.666 347.815C361.686 346.963 362.391 346.289 363.244 346.309C364.063 346.33 364.453 346.067 364.628 345.718C364.898 345.176 364.922 344.351 364.926 343.738L365.016 331.02ZM353.607 355.748C353.103 355.061 353.251 354.093 353.94 353.589C354.627 353.084 355.594 353.233 356.099 353.922C356.395 354.325 356.741 354.694 357.128 355.027C359.019 356.652 361.89 357.498 364.871 357.534C367.881 357.569 370.954 356.775 373.21 355.122C373.766 354.715 374.267 354.259 374.702 353.753C375.256 353.104 376.231 353.03 376.878 353.584C377.526 354.138 377.601 355.113 377.047 355.76C376.449 356.455 375.773 357.072 375.035 357.613C372.225 359.671 368.47 360.66 364.833 360.617C361.166 360.573 357.571 359.479 355.121 357.373C354.551 356.884 354.042 356.34 353.607 355.748ZM378.631 329.293C379.415 329.293 380.057 329.933 380.057 330.718V335.262C380.057 336.045 379.416 336.687 378.631 336.687C377.848 336.687 377.206 336.047 377.206 335.262V330.718C377.206 329.935 377.847 329.293 378.631 329.293Z" fill="white" fill-opacity="0.5"/>
</g>
<path fill-rule="evenodd" clip-rule="evenodd" d="M393.526 127.18C396.054 127.18 398.103 125.131 398.103 122.603C398.103 120.075 396.054 118.026 393.526 118.026C390.998 118.026 388.949 120.075 388.949 122.603C388.949 125.131 390.998 127.18 393.526 127.18Z" fill="#262C2D"/>
<path fill-rule="evenodd" clip-rule="evenodd" d="M393.527 125.463C395.106 125.463 396.387 124.183 396.387 122.603C396.387 121.023 395.106 119.742 393.527 119.742C391.947 119.742 390.666 121.023 390.666 122.603C390.666 124.183 391.947 125.463 393.527 125.463Z" fill="#121515"/>
<path opacity="0.4" fill-rule="evenodd" clip-rule="evenodd" d="M393.525 122.03C393.841 122.03 394.097 121.774 394.097 121.458C394.097 121.142 393.841 120.886 393.525 120.886C393.209 120.886 392.953 121.142 392.953 121.458C392.953 121.774 393.209 122.03 393.525 122.03Z" fill="#636F73"/>
<ellipse cx="365.257" cy="193.633" rx="21.1416" ry="29.465" transform="rotate(-46.3755 365.257 193.633)" fill="#006053" fill-opacity="0.2"/>
<ellipse cx="365.257" cy="193.634" rx="21.1416" ry="29.465" transform="rotate(-124.429 365.257 193.634)" fill="#006053" fill-opacity="0.3"/>
<ellipse cx="365.256" cy="193.634" rx="21.1416" ry="29.465" transform="rotate(-90 365.256 193.634)" fill="#006053" fill-opacity="0.4"/>
<ellipse cx="365.257" cy="193.633" rx="21.1416" ry="29.465" fill="#006053" fill-opacity="0.5"/>
<path d="M327.588 240.054C327.824 240.054 328.032 240.022 328.211 239.96C328.393 239.897 328.545 239.81 328.668 239.699C328.793 239.585 328.887 239.45 328.95 239.294C329.012 239.137 329.044 238.965 329.044 238.777C329.044 238.387 328.923 238.082 328.681 237.863C328.442 237.644 328.077 237.534 327.588 237.534H326.605V240.054H327.588ZM327.588 236.881C327.975 236.881 328.311 236.927 328.595 237.018C328.883 237.106 329.12 237.233 329.308 237.398C329.496 237.563 329.636 237.762 329.727 237.996C329.821 238.229 329.868 238.49 329.868 238.777C329.868 239.062 329.818 239.322 329.718 239.558C329.619 239.795 329.472 239.998 329.278 240.169C329.088 240.34 328.85 240.474 328.565 240.57C328.284 240.664 327.958 240.711 327.588 240.711H326.605V243H325.781V236.881H327.588ZM331.54 239.541C331.677 239.245 331.845 239.015 332.044 238.85C332.243 238.682 332.487 238.598 332.774 238.598C332.865 238.598 332.952 238.608 333.034 238.628C333.12 238.648 333.195 238.679 333.261 238.722L333.205 239.289C333.188 239.361 333.146 239.396 333.077 239.396C333.037 239.396 332.979 239.388 332.902 239.371C332.825 239.353 332.738 239.345 332.642 239.345C332.505 239.345 332.383 239.365 332.274 239.405C332.169 239.445 332.074 239.504 331.988 239.584C331.906 239.661 331.83 239.758 331.762 239.874C331.697 239.988 331.637 240.119 331.583 240.267V243H330.818V238.675H331.254C331.336 238.675 331.393 238.69 331.425 238.722C331.456 238.753 331.477 238.807 331.489 238.884L331.54 239.541ZM336.82 240.365C336.82 240.189 336.794 240.028 336.743 239.883C336.695 239.735 336.622 239.608 336.525 239.503C336.431 239.395 336.316 239.312 336.179 239.255C336.043 239.195 335.888 239.166 335.714 239.166C335.35 239.166 335.061 239.272 334.847 239.486C334.636 239.696 334.505 239.99 334.454 240.365H336.82ZM337.435 242.394C337.341 242.508 337.228 242.607 337.097 242.693C336.966 242.775 336.825 242.843 336.675 242.898C336.527 242.952 336.373 242.991 336.213 243.017C336.054 243.046 335.896 243.06 335.739 243.06C335.441 243.06 335.164 243.01 334.911 242.91C334.661 242.808 334.443 242.66 334.258 242.466C334.076 242.27 333.933 242.028 333.831 241.74C333.728 241.453 333.677 241.123 333.677 240.75C333.677 240.448 333.723 240.166 333.814 239.904C333.908 239.642 334.041 239.416 334.215 239.225C334.389 239.032 334.601 238.881 334.851 238.773C335.102 238.662 335.384 238.606 335.697 238.606C335.956 238.606 336.195 238.65 336.414 238.739C336.636 238.824 336.827 238.949 336.986 239.114C337.149 239.277 337.275 239.479 337.366 239.721C337.457 239.96 337.503 240.233 337.503 240.541C337.503 240.66 337.49 240.74 337.465 240.78C337.439 240.819 337.391 240.839 337.319 240.839H334.429C334.437 241.113 334.474 241.35 334.54 241.552C334.608 241.755 334.702 241.924 334.821 242.061C334.941 242.194 335.083 242.295 335.248 242.364C335.414 242.429 335.599 242.462 335.804 242.462C335.994 242.462 336.158 242.441 336.295 242.398C336.434 242.352 336.554 242.304 336.653 242.253C336.753 242.202 336.835 242.155 336.901 242.112C336.969 242.066 337.028 242.044 337.076 242.044C337.139 242.044 337.187 242.068 337.221 242.116L337.435 242.394ZM341.127 239.388C341.092 239.45 341.04 239.482 340.969 239.482C340.926 239.482 340.878 239.466 340.823 239.435C340.769 239.403 340.702 239.369 340.623 239.332C340.546 239.292 340.453 239.257 340.345 239.225C340.237 239.191 340.109 239.174 339.961 239.174C339.833 239.174 339.718 239.191 339.615 239.225C339.513 239.257 339.424 239.301 339.35 239.358C339.279 239.415 339.224 239.482 339.184 239.558C339.147 239.632 339.128 239.714 339.128 239.802C339.128 239.913 339.16 240.005 339.222 240.079C339.288 240.153 339.373 240.217 339.478 240.272C339.584 240.326 339.703 240.374 339.837 240.417C339.971 240.457 340.108 240.501 340.247 240.549C340.389 240.595 340.527 240.646 340.661 240.703C340.795 240.76 340.915 240.831 341.02 240.916C341.125 241.002 341.209 241.107 341.272 241.232C341.337 241.355 341.37 241.503 341.37 241.676C341.37 241.876 341.334 242.061 341.263 242.231C341.192 242.399 341.087 242.546 340.947 242.671C340.808 242.794 340.637 242.89 340.435 242.962C340.233 243.033 339.999 243.068 339.735 243.068C339.433 243.068 339.16 243.02 338.915 242.923C338.67 242.824 338.462 242.697 338.291 242.543L338.471 242.253C338.493 242.216 338.521 242.187 338.552 242.167C338.583 242.147 338.623 242.137 338.671 242.137C338.723 242.137 338.777 242.157 338.834 242.197C338.891 242.237 338.959 242.281 339.039 242.33C339.121 242.378 339.221 242.422 339.338 242.462C339.454 242.502 339.599 242.522 339.773 242.522C339.921 242.522 340.051 242.503 340.162 242.466C340.273 242.426 340.365 242.374 340.439 242.308C340.513 242.243 340.567 242.167 340.601 242.082C340.638 241.997 340.657 241.905 340.657 241.809C340.657 241.689 340.624 241.591 340.559 241.514C340.496 241.434 340.412 241.367 340.307 241.313C340.201 241.256 340.08 241.208 339.944 241.168C339.81 241.125 339.672 241.081 339.53 241.036C339.39 240.99 339.252 240.939 339.115 240.882C338.982 240.822 338.862 240.748 338.757 240.66C338.651 240.572 338.566 240.464 338.501 240.336C338.438 240.205 338.407 240.047 338.407 239.862C338.407 239.696 338.441 239.539 338.509 239.388C338.577 239.234 338.677 239.1 338.808 238.986C338.939 238.87 339.1 238.777 339.291 238.709C339.481 238.64 339.699 238.606 339.944 238.606C340.229 238.606 340.483 238.652 340.708 238.743C340.936 238.831 341.132 238.954 341.297 239.11L341.127 239.388ZM344.992 239.388C344.958 239.45 344.905 239.482 344.834 239.482C344.791 239.482 344.743 239.466 344.689 239.435C344.635 239.403 344.568 239.369 344.488 239.332C344.411 239.292 344.319 239.257 344.211 239.225C344.102 239.191 343.974 239.174 343.826 239.174C343.698 239.174 343.583 239.191 343.48 239.225C343.378 239.257 343.29 239.301 343.216 239.358C343.144 239.415 343.089 239.482 343.049 239.558C343.012 239.632 342.994 239.714 342.994 239.802C342.994 239.913 343.025 240.005 343.088 240.079C343.153 240.153 343.238 240.217 343.344 240.272C343.449 240.326 343.569 240.374 343.702 240.417C343.836 240.457 343.973 240.501 344.112 240.549C344.255 240.595 344.393 240.646 344.526 240.703C344.66 240.76 344.78 240.831 344.885 240.916C344.99 241.002 345.074 241.107 345.137 241.232C345.203 241.355 345.235 241.503 345.235 241.676C345.235 241.876 345.2 242.061 345.129 242.231C345.057 242.399 344.952 242.546 344.813 242.671C344.673 242.794 344.502 242.89 344.3 242.962C344.098 243.033 343.865 243.068 343.6 243.068C343.298 243.068 343.025 243.02 342.78 242.923C342.535 242.824 342.327 242.697 342.157 242.543L342.336 242.253C342.359 242.216 342.386 242.187 342.417 242.167C342.448 242.147 342.488 242.137 342.537 242.137C342.588 242.137 342.642 242.157 342.699 242.197C342.756 242.237 342.824 242.281 342.904 242.33C342.986 242.378 343.086 242.422 343.203 242.462C343.32 242.502 343.465 242.522 343.638 242.522C343.786 242.522 343.916 242.503 344.027 242.466C344.138 242.426 344.23 242.374 344.304 242.308C344.378 242.243 344.433 242.167 344.467 242.082C344.504 241.997 344.522 241.905 344.522 241.809C344.522 241.689 344.489 241.591 344.424 241.514C344.361 241.434 344.277 241.367 344.172 241.313C344.067 241.256 343.946 241.208 343.809 241.168C343.675 241.125 343.537 241.081 343.395 241.036C343.255 240.99 343.117 240.939 342.981 240.882C342.847 240.822 342.727 240.748 342.622 240.66C342.517 240.572 342.431 240.464 342.366 240.336C342.303 240.205 342.272 240.047 342.272 239.862C342.272 239.696 342.306 239.539 342.374 239.388C342.443 239.234 342.542 239.1 342.673 238.986C342.804 238.87 342.965 238.777 343.156 238.709C343.347 238.64 343.564 238.606 343.809 238.606C344.094 238.606 344.349 238.652 344.573 238.743C344.801 238.831 344.998 238.954 345.163 239.11L344.992 239.388ZM352.209 238.675L349.796 244.277C349.771 244.334 349.738 244.379 349.698 244.413C349.661 244.448 349.603 244.465 349.523 244.465H348.959L349.749 242.748L347.965 238.675H348.622C348.688 238.675 348.739 238.692 348.776 238.726C348.816 238.757 348.843 238.793 348.857 238.833L350.014 241.557C350.06 241.676 350.098 241.802 350.129 241.933C350.169 241.799 350.212 241.672 350.257 241.552L351.38 238.833C351.398 238.787 351.426 238.75 351.466 238.722C351.509 238.69 351.556 238.675 351.607 238.675H352.209ZM354.758 238.606C355.074 238.606 355.358 238.659 355.612 238.764C355.865 238.87 356.081 239.019 356.261 239.213C356.44 239.406 356.577 239.641 356.671 239.917C356.767 240.19 356.816 240.496 356.816 240.835C356.816 241.177 356.767 241.484 356.671 241.757C356.577 242.031 356.44 242.264 356.261 242.458C356.081 242.651 355.865 242.801 355.612 242.906C355.358 243.009 355.074 243.06 354.758 243.06C354.439 243.06 354.151 243.009 353.895 242.906C353.642 242.801 353.425 242.651 353.246 242.458C353.067 242.264 352.929 242.031 352.832 241.757C352.738 241.484 352.691 241.177 352.691 240.835C352.691 240.496 352.738 240.19 352.832 239.917C352.929 239.641 353.067 239.406 353.246 239.213C353.425 239.019 353.642 238.87 353.895 238.764C354.151 238.659 354.439 238.606 354.758 238.606ZM354.758 242.466C355.185 242.466 355.503 242.324 355.714 242.039C355.925 241.752 356.03 241.352 356.03 240.839C356.03 240.324 355.925 239.923 355.714 239.635C355.503 239.348 355.185 239.204 354.758 239.204C354.541 239.204 354.352 239.241 354.19 239.315C354.03 239.389 353.896 239.496 353.788 239.635C353.683 239.775 353.603 239.947 353.549 240.152C353.498 240.354 353.472 240.583 353.472 240.839C353.472 241.352 353.578 241.752 353.788 242.039C354.002 242.324 354.325 242.466 354.758 242.466ZM361.507 238.675V243H361.055C360.947 243 360.878 242.947 360.85 242.842L360.79 242.377C360.602 242.584 360.391 242.752 360.158 242.88C359.925 243.006 359.657 243.068 359.355 243.068C359.119 243.068 358.91 243.03 358.728 242.953C358.548 242.873 358.397 242.762 358.275 242.62C358.153 242.478 358.06 242.305 357.997 242.103C357.938 241.901 357.908 241.678 357.908 241.433V238.675H358.668V241.433C358.668 241.76 358.742 242.014 358.89 242.193C359.041 242.372 359.27 242.462 359.577 242.462C359.802 242.462 360.011 242.409 360.205 242.304C360.401 242.196 360.582 242.048 360.747 241.86V238.675H361.507ZM363.605 239.541C363.742 239.245 363.91 239.015 364.109 238.85C364.308 238.682 364.551 238.598 364.839 238.598C364.93 238.598 365.017 238.608 365.099 238.628C365.185 238.648 365.26 238.679 365.326 238.722L365.27 239.289C365.253 239.361 365.21 239.396 365.142 239.396C365.102 239.396 365.044 239.388 364.967 239.371C364.89 239.353 364.803 239.345 364.707 239.345C364.57 239.345 364.448 239.365 364.339 239.405C364.234 239.445 364.139 239.504 364.053 239.584C363.971 239.661 363.895 239.758 363.827 239.874C363.761 239.988 363.702 240.119 363.648 240.267V243H362.883V238.675H363.319C363.401 238.675 363.458 238.69 363.49 238.722C363.521 238.753 363.542 238.807 363.554 238.884L363.605 239.541ZM368.619 243V239.324L368.141 239.268C368.081 239.254 368.031 239.232 367.991 239.204C367.954 239.173 367.936 239.129 367.936 239.072V238.76H368.619V238.341C368.619 238.094 368.653 237.875 368.721 237.684C368.793 237.49 368.892 237.328 369.02 237.197C369.151 237.063 369.308 236.962 369.49 236.894C369.672 236.826 369.877 236.792 370.105 236.792C370.298 236.792 370.476 236.82 370.639 236.877L370.622 237.257C370.616 237.325 370.577 237.362 370.506 237.368C370.438 237.374 370.345 237.376 370.229 237.376C370.098 237.376 369.978 237.394 369.87 237.428C369.765 237.462 369.674 237.517 369.597 237.594C369.52 237.671 369.46 237.772 369.417 237.897C369.378 238.023 369.358 238.178 369.358 238.363V238.76H370.604V239.311H369.383V243H368.619ZM373.821 241.053C373.471 241.064 373.172 241.093 372.924 241.138C372.68 241.181 372.479 241.238 372.322 241.309C372.169 241.38 372.056 241.464 371.985 241.561C371.917 241.658 371.883 241.766 371.883 241.886C371.883 241.999 371.901 242.098 371.938 242.18C371.975 242.263 372.025 242.331 372.087 242.385C372.153 242.436 372.228 242.475 372.314 242.5C372.402 242.523 372.496 242.535 372.596 242.535C372.729 242.535 372.852 242.522 372.963 242.496C373.074 242.468 373.178 242.428 373.275 242.377C373.374 242.325 373.468 242.264 373.556 242.193C373.647 242.122 373.736 242.041 373.821 241.95V241.053ZM371.366 239.285C371.605 239.055 371.863 238.882 372.139 238.768C372.415 238.655 372.721 238.598 373.057 238.598C373.299 238.598 373.514 238.638 373.702 238.717C373.889 238.797 374.047 238.908 374.175 239.05C374.304 239.193 374.4 239.365 374.466 239.567C374.531 239.769 374.564 239.991 374.564 240.233V243H374.227C374.153 243 374.096 242.989 374.056 242.966C374.016 242.94 373.985 242.892 373.962 242.821L373.877 242.411C373.763 242.516 373.652 242.61 373.544 242.693C373.435 242.772 373.321 242.841 373.202 242.898C373.082 242.952 372.954 242.993 372.818 243.021C372.684 243.053 372.534 243.068 372.369 243.068C372.201 243.068 372.043 243.046 371.895 243C371.747 242.952 371.618 242.88 371.507 242.787C371.399 242.693 371.312 242.574 371.246 242.432C371.184 242.287 371.152 242.116 371.152 241.92C371.152 241.749 371.199 241.585 371.293 241.429C371.387 241.269 371.54 241.128 371.75 241.006C371.961 240.884 372.236 240.784 372.574 240.707C372.913 240.627 373.329 240.582 373.821 240.57V240.233C373.821 239.897 373.748 239.644 373.603 239.473C373.458 239.299 373.246 239.213 372.967 239.213C372.779 239.213 372.621 239.237 372.493 239.285C372.368 239.331 372.258 239.383 372.164 239.443C372.073 239.5 371.994 239.553 371.925 239.601C371.86 239.647 371.794 239.669 371.729 239.669C371.678 239.669 371.633 239.657 371.596 239.631C371.559 239.603 371.528 239.568 371.502 239.529L371.366 239.285ZM378.903 239.443C378.88 239.474 378.857 239.499 378.835 239.516C378.812 239.533 378.78 239.541 378.741 239.541C378.698 239.541 378.651 239.524 378.6 239.49C378.548 239.453 378.484 239.413 378.408 239.371C378.334 239.328 378.241 239.289 378.13 239.255C378.022 239.218 377.888 239.2 377.729 239.2C377.515 239.2 377.327 239.238 377.165 239.315C377.003 239.389 376.866 239.497 376.755 239.64C376.647 239.782 376.564 239.954 376.507 240.156C376.453 240.358 376.426 240.585 376.426 240.835C376.426 241.097 376.456 241.33 376.516 241.535C376.576 241.738 376.66 241.908 376.768 242.048C376.879 242.184 377.011 242.29 377.165 242.364C377.322 242.435 377.497 242.471 377.69 242.471C377.875 242.471 378.028 242.449 378.147 242.406C378.267 242.361 378.365 242.311 378.442 242.257C378.521 242.203 378.587 242.155 378.638 242.112C378.692 242.066 378.745 242.044 378.796 242.044C378.859 242.044 378.907 242.068 378.941 242.116L379.155 242.394C379.061 242.51 378.954 242.61 378.835 242.693C378.715 242.775 378.586 242.845 378.446 242.902C378.309 242.956 378.166 242.996 378.015 243.021C377.864 243.047 377.71 243.06 377.554 243.06C377.283 243.06 377.031 243.01 376.798 242.91C376.567 242.811 376.367 242.667 376.196 242.479C376.025 242.288 375.891 242.055 375.794 241.779C375.698 241.503 375.649 241.188 375.649 240.835C375.649 240.513 375.693 240.216 375.782 239.943C375.873 239.669 376.004 239.435 376.174 239.238C376.348 239.039 376.56 238.884 376.811 238.773C377.064 238.662 377.354 238.606 377.682 238.606C377.986 238.606 378.254 238.656 378.484 238.756C378.718 238.852 378.924 238.991 379.104 239.17L378.903 239.443ZM382.961 240.365C382.961 240.189 382.936 240.028 382.885 239.883C382.836 239.735 382.764 239.608 382.667 239.503C382.573 239.395 382.458 239.312 382.321 239.255C382.184 239.195 382.029 239.166 381.856 239.166C381.491 239.166 381.202 239.272 380.989 239.486C380.778 239.696 380.647 239.99 380.596 240.365H382.961ZM383.576 242.394C383.482 242.508 383.37 242.607 383.239 242.693C383.108 242.775 382.967 242.843 382.816 242.898C382.668 242.952 382.515 242.991 382.355 243.017C382.196 243.046 382.038 243.06 381.881 243.06C381.582 243.06 381.306 243.01 381.053 242.91C380.802 242.808 380.585 242.66 380.4 242.466C380.217 242.27 380.075 242.028 379.973 241.74C379.87 241.453 379.819 241.123 379.819 240.75C379.819 240.448 379.864 240.166 379.955 239.904C380.049 239.642 380.183 239.416 380.357 239.225C380.53 239.032 380.743 238.881 380.993 238.773C381.244 238.662 381.525 238.606 381.838 238.606C382.098 238.606 382.337 238.65 382.556 238.739C382.778 238.824 382.969 238.949 383.128 239.114C383.29 239.277 383.417 239.479 383.508 239.721C383.599 239.96 383.645 240.233 383.645 240.541C383.645 240.66 383.632 240.74 383.606 240.78C383.581 240.819 383.532 240.839 383.461 240.839H380.57C380.579 241.113 380.616 241.35 380.681 241.552C380.75 241.755 380.844 241.924 380.963 242.061C381.083 242.194 381.225 242.295 381.39 242.364C381.555 242.429 381.74 242.462 381.945 242.462C382.136 242.462 382.3 242.441 382.436 242.398C382.576 242.352 382.695 242.304 382.795 242.253C382.895 242.202 382.977 242.155 383.043 242.112C383.111 242.066 383.169 242.044 383.218 242.044C383.28 242.044 383.329 242.068 383.363 242.116L383.576 242.394ZM388.113 243H387.284V236.881H388.113V243ZM392.362 239.704C392.22 239.513 392.066 239.381 391.901 239.307C391.736 239.23 391.551 239.191 391.346 239.191C390.945 239.191 390.636 239.335 390.419 239.622C390.203 239.91 390.095 240.32 390.095 240.852C390.095 241.134 390.119 241.376 390.167 241.578C390.216 241.777 390.287 241.942 390.381 242.073C390.475 242.202 390.59 242.295 390.727 242.355C390.863 242.415 391.019 242.445 391.192 242.445C391.443 242.445 391.661 242.388 391.846 242.274C392.033 242.16 392.206 241.999 392.362 241.792V239.704ZM393.122 236.71V243H392.67C392.561 243 392.493 242.947 392.465 242.842L392.396 242.317C392.211 242.539 392.001 242.718 391.764 242.855C391.528 242.991 391.255 243.06 390.945 243.06C390.697 243.06 390.472 243.013 390.27 242.919C390.068 242.822 389.896 242.681 389.753 242.496C389.611 242.311 389.501 242.081 389.424 241.804C389.348 241.528 389.309 241.211 389.309 240.852C389.309 240.533 389.352 240.237 389.437 239.964C389.523 239.688 389.645 239.449 389.805 239.247C389.964 239.045 390.159 238.887 390.39 238.773C390.623 238.656 390.885 238.598 391.175 238.598C391.44 238.598 391.666 238.643 391.854 238.734C392.045 238.823 392.214 238.946 392.362 239.106V236.71H393.122Z" fill="#111111"/>
<path d="M0 121.077C0 113.855 5.85474 108 13.0769 108H159.974C167.197 108 173.051 113.855 173.051 121.077V468.923C173.051 476.145 167.197 482 159.974 482H13.0769C5.85474 482 0 476.145 0 468.923V121.077Z" fill="#3A4245"/>
<path d="M2.61523 121.077C2.61523 115.299 7.29903 110.615 13.0768 110.615H159.974C165.752 110.615 170.436 115.299 170.436 121.077V468.923C170.436 474.701 165.752 479.384 159.974 479.384H13.0768C7.29902 479.384 2.61523 474.701 2.61523 468.923V121.077Z" fill="#121515"/>
<path d="M173.051 244H173.487C173.968 244 174.358 244.339 174.358 244.757L174.358 265.909C174.358 266.328 173.968 266.667 173.487 266.667H173.051L173.051 244Z" fill="#C4C4C4"/>
<path d="M173.051 180.359H173.487C173.968 180.359 174.358 181.004 174.358 181.801L174.358 222.071C174.358 222.867 173.968 223.513 173.487 223.513H173.051L173.051 180.359Z" fill="#C4C4C4"/>
<mask id="mask1" mask-type="alpha" maskUnits="userSpaceOnUse" x="5" y="113" width="163" height="360">
<path d="M5.66602 125.436C5.66602 118.936 10.9353 113.667 17.4352 113.667H155.615C162.115 113.667 167.384 118.936 167.384 125.436V461.077C167.384 467.577 162.115 472.846 155.615 472.846H17.4352C10.9353 472.846 5.66602 467.577 5.66602 461.077V125.436Z" fill="white"/>
</mask>
<g mask="url(#mask1)">
<path d="M5.92188 125.239C5.92188 118.739 11.1911 113.47 17.6911 113.47H155.871C162.371 113.47 167.64 118.739 167.64 125.239V460.88C167.64 467.38 162.371 472.649 155.871 472.649H17.6911C11.1911 472.649 5.92188 467.38 5.92188 460.88V125.239Z" fill="#CAD3D2"/>
<ellipse cx="105.257" cy="193.631" rx="21.1416" ry="29.465" transform="rotate(-46.3755 105.257 193.631)" fill="#006053" fill-opacity="0.2"/>
<ellipse cx="105.257" cy="193.633" rx="21.1416" ry="29.465" transform="rotate(-124.429 105.257 193.633)" fill="#006053" fill-opacity="0.3"/>
<ellipse cx="105.256" cy="193.633" rx="21.1416" ry="29.465" transform="rotate(-90 105.256 193.633)" fill="#006053" fill-opacity="0.4"/>
<ellipse cx="105.257" cy="193.632" rx="21.1416" ry="29.465" fill="#006053" fill-opacity="0.5"/>
<path d="M75.322 240.052C75.5582 240.052 75.766 240.021 75.9454 239.958C76.1276 239.896 76.2798 239.809 76.4023 239.698C76.5275 239.584 76.6214 239.449 76.6841 239.292C76.7467 239.136 76.778 238.963 76.778 238.776C76.778 238.386 76.657 238.081 76.4151 237.862C76.1759 237.643 75.8116 237.533 75.322 237.533H74.3399V240.052H75.322ZM75.322 236.88C75.7091 236.88 76.045 236.925 76.3297 237.016C76.6172 237.105 76.8549 237.231 77.0427 237.396C77.2306 237.561 77.3701 237.761 77.4612 237.994C77.5551 238.228 77.6021 238.488 77.6021 238.776C77.6021 239.06 77.5523 239.321 77.4527 239.557C77.353 239.793 77.2064 239.997 77.0129 240.168C76.8221 240.338 76.5844 240.472 76.2998 240.569C76.018 240.663 75.692 240.71 75.322 240.71H74.3399V242.999H73.5158V236.88H75.322ZM79.2744 239.54C79.411 239.244 79.579 239.013 79.7782 238.848C79.9775 238.68 80.2209 238.596 80.5084 238.596C80.5995 238.596 80.6863 238.606 80.7689 238.626C80.8543 238.646 80.9297 238.677 80.9952 238.72L80.9397 239.288C80.9226 239.359 80.8799 239.395 80.8116 239.395C80.7717 239.395 80.7134 239.386 80.6365 239.369C80.5596 239.352 80.4728 239.343 80.376 239.343C80.2394 239.343 80.117 239.363 80.0088 239.403C79.9035 239.443 79.8081 239.503 79.7227 239.583C79.6402 239.659 79.5647 239.756 79.4964 239.873C79.431 239.987 79.3712 240.118 79.3171 240.266V242.999H78.5528V238.673H78.9883C79.0709 238.673 79.1278 238.689 79.1591 238.72C79.1904 238.751 79.2118 238.805 79.2231 238.882L79.2744 239.54ZM84.5542 240.364C84.5542 240.187 84.5285 240.027 84.4773 239.881C84.4289 239.733 84.3563 239.607 84.2595 239.501C84.1656 239.393 84.0503 239.311 83.9137 239.254C83.777 239.194 83.6219 239.164 83.4483 239.164C83.0839 239.164 82.795 239.271 82.5815 239.484C82.3708 239.695 82.2399 239.988 82.1886 240.364H84.5542ZM85.169 242.392C85.0751 242.506 84.9627 242.606 84.8317 242.691C84.7008 242.774 84.5599 242.842 84.409 242.896C84.261 242.95 84.1072 242.99 83.9478 243.016C83.7884 243.044 83.6304 243.058 83.4739 243.058C83.175 243.058 82.8989 243.008 82.6455 242.909C82.395 242.806 82.1772 242.658 81.9922 242.465C81.81 242.268 81.6677 242.026 81.5652 241.739C81.4627 241.451 81.4115 241.121 81.4115 240.748C81.4115 240.447 81.457 240.165 81.5481 239.903C81.6421 239.641 81.7759 239.415 81.9495 239.224C82.1231 239.03 82.3352 238.879 82.5857 238.771C82.8362 238.66 83.118 238.605 83.4312 238.605C83.6902 238.605 83.9293 238.649 84.1485 238.737C84.3706 238.823 84.5613 238.948 84.7207 239.113C84.883 239.275 85.0096 239.477 85.1007 239.719C85.1918 239.958 85.2374 240.232 85.2374 240.539C85.2374 240.659 85.2245 240.738 85.1989 240.778C85.1733 240.818 85.1249 240.838 85.0537 240.838H82.163C82.1715 241.111 82.2085 241.349 82.274 241.551C82.3423 241.753 82.4363 241.923 82.5558 242.059C82.6754 242.193 82.8177 242.294 82.9828 242.362C83.1479 242.428 83.333 242.461 83.5379 242.461C83.7286 242.461 83.8923 242.439 84.029 242.396C84.1684 242.351 84.288 242.303 84.3876 242.251C84.4873 242.2 84.5698 242.153 84.6353 242.11C84.7036 242.065 84.762 242.042 84.8104 242.042C84.873 242.042 84.9214 242.066 84.9555 242.115L85.169 242.392ZM88.861 239.386C88.8268 239.449 88.7742 239.48 88.703 239.48C88.6603 239.48 88.6119 239.464 88.5578 239.433C88.5037 239.402 88.4369 239.368 88.3571 239.331C88.2803 239.291 88.1878 239.255 88.0796 239.224C87.9714 239.19 87.8433 239.173 87.6953 239.173C87.5672 239.173 87.4519 239.19 87.3494 239.224C87.247 239.255 87.1587 239.299 87.0847 239.356C87.0135 239.413 86.958 239.48 86.9182 239.557C86.8812 239.631 86.8627 239.712 86.8627 239.8C86.8627 239.911 86.894 240.004 86.9566 240.078C87.0221 240.152 87.1075 240.216 87.2128 240.27C87.3181 240.324 87.4377 240.373 87.5715 240.415C87.7053 240.455 87.8419 240.499 87.9814 240.548C88.1237 240.593 88.2618 240.644 88.3956 240.701C88.5294 240.758 88.6489 240.829 88.7543 240.915C88.8596 241 88.9436 241.106 89.0062 241.231C89.0716 241.353 89.1044 241.501 89.1044 241.675C89.1044 241.874 89.0688 242.059 88.9976 242.23C88.9265 242.398 88.8211 242.544 88.6817 242.67C88.5422 242.792 88.3714 242.889 88.1693 242.96C87.9672 243.031 87.7337 243.067 87.469 243.067C87.1673 243.067 86.894 243.018 86.6492 242.922C86.4044 242.822 86.1966 242.695 86.0258 242.542L86.2051 242.251C86.2279 242.214 86.2549 242.186 86.2862 242.166C86.3175 242.146 86.3574 242.136 86.4058 242.136C86.457 242.136 86.5111 242.156 86.568 242.196C86.625 242.236 86.6933 242.28 86.773 242.328C86.8556 242.377 86.9552 242.421 87.0719 242.461C87.1886 242.5 87.3338 242.52 87.5074 242.52C87.6555 242.52 87.785 242.502 87.896 242.465C88.007 242.425 88.0995 242.372 88.1735 242.307C88.2476 242.241 88.3016 242.166 88.3358 242.08C88.3728 241.995 88.3913 241.904 88.3913 241.807C88.3913 241.688 88.3586 241.589 88.2931 241.513C88.2305 241.433 88.1465 241.366 88.0412 241.312C87.9358 241.255 87.8149 241.207 87.6782 241.167C87.5444 241.124 87.4064 241.08 87.264 241.034C87.1246 240.989 86.9865 240.938 86.8499 240.881C86.7161 240.821 86.5965 240.747 86.4912 240.659C86.3859 240.57 86.3005 240.462 86.235 240.334C86.1724 240.203 86.141 240.045 86.141 239.86C86.141 239.695 86.1752 239.537 86.2435 239.386C86.3118 239.232 86.4115 239.099 86.5424 238.985C86.6734 238.868 86.8342 238.776 87.0249 238.707C87.2156 238.639 87.4334 238.605 87.6782 238.605C87.9629 238.605 88.2177 238.65 88.4425 238.741C88.6703 238.83 88.8667 238.952 89.0318 239.109L88.861 239.386ZM92.7263 239.386C92.6921 239.449 92.6395 239.48 92.5683 239.48C92.5256 239.48 92.4772 239.464 92.4231 239.433C92.369 239.402 92.3021 239.368 92.2224 239.331C92.1456 239.291 92.0531 239.255 91.9449 239.224C91.8367 239.19 91.7086 239.173 91.5606 239.173C91.4325 239.173 91.3172 239.19 91.2147 239.224C91.1123 239.255 91.024 239.299 90.95 239.356C90.8788 239.413 90.8233 239.48 90.7835 239.557C90.7465 239.631 90.728 239.712 90.728 239.8C90.728 239.911 90.7593 240.004 90.8219 240.078C90.8874 240.152 90.9728 240.216 91.0781 240.27C91.1834 240.324 91.303 240.373 91.4368 240.415C91.5706 240.455 91.7072 240.499 91.8467 240.548C91.989 240.593 92.1271 240.644 92.2609 240.701C92.3947 240.758 92.5142 240.829 92.6195 240.915C92.7249 241 92.8088 241.106 92.8715 241.231C92.9369 241.353 92.9697 241.501 92.9697 241.675C92.9697 241.874 92.9341 242.059 92.8629 242.23C92.7918 242.398 92.6864 242.544 92.547 242.67C92.4075 242.792 92.2367 242.889 92.0346 242.96C91.8325 243.031 91.599 243.067 91.3343 243.067C91.0326 243.067 90.7593 243.018 90.5145 242.922C90.2697 242.822 90.0619 242.695 89.8911 242.542L90.0704 242.251C90.0932 242.214 90.1202 242.186 90.1515 242.166C90.1828 242.146 90.2227 242.136 90.2711 242.136C90.3223 242.136 90.3764 242.156 90.4333 242.196C90.4903 242.236 90.5586 242.28 90.6383 242.328C90.7208 242.377 90.8205 242.421 90.9372 242.461C91.0539 242.5 91.1991 242.52 91.3727 242.52C91.5207 242.52 91.6503 242.502 91.7613 242.465C91.8723 242.425 91.9648 242.372 92.0388 242.307C92.1128 242.241 92.1669 242.166 92.2011 242.08C92.2381 241.995 92.2566 241.904 92.2566 241.807C92.2566 241.688 92.2239 241.589 92.1584 241.513C92.0958 241.433 92.0118 241.366 91.9065 241.312C91.8011 241.255 91.6802 241.207 91.5435 241.167C91.4097 241.124 91.2717 241.08 91.1293 241.034C90.9899 240.989 90.8518 240.938 90.7152 240.881C90.5814 240.821 90.4618 240.747 90.3565 240.659C90.2512 240.57 90.1658 240.462 90.1003 240.334C90.0377 240.203 90.0063 240.045 90.0063 239.86C90.0063 239.695 90.0405 239.537 90.1088 239.386C90.1771 239.232 90.2768 239.099 90.4077 238.985C90.5387 238.868 90.6995 238.776 90.8902 238.707C91.0809 238.639 91.2987 238.605 91.5435 238.605C91.8282 238.605 92.083 238.65 92.3078 238.741C92.5356 238.83 92.732 238.952 92.8971 239.109L92.7263 239.386ZM99.9432 238.673L97.5307 244.275C97.5051 244.332 97.4724 244.378 97.4325 244.412C97.3955 244.446 97.3371 244.463 97.2574 244.463H96.6938L97.4837 242.747L95.6989 238.673H96.3565C96.4219 238.673 96.4732 238.69 96.5102 238.724C96.55 238.756 96.5771 238.791 96.5913 238.831L97.7485 241.555C97.794 241.675 97.8325 241.8 97.8638 241.931C97.9036 241.797 97.9463 241.671 97.9919 241.551L99.1149 238.831C99.1319 238.786 99.1604 238.749 99.2003 238.72C99.243 238.689 99.2899 238.673 99.3412 238.673H99.9432ZM102.492 238.605C102.808 238.605 103.093 238.657 103.346 238.763C103.599 238.868 103.816 239.018 103.995 239.211C104.174 239.405 104.311 239.64 104.405 239.916C104.502 240.189 104.55 240.495 104.55 240.834C104.55 241.175 104.502 241.483 104.405 241.756C104.311 242.029 104.174 242.263 103.995 242.456C103.816 242.65 103.599 242.799 103.346 242.905C103.093 243.007 102.808 243.058 102.492 243.058C102.173 243.058 101.886 243.007 101.629 242.905C101.376 242.799 101.16 242.65 100.98 242.456C100.801 242.263 100.663 242.029 100.566 241.756C100.472 241.483 100.425 241.175 100.425 240.834C100.425 240.495 100.472 240.189 100.566 239.916C100.663 239.64 100.801 239.405 100.98 239.211C101.16 239.018 101.376 238.868 101.629 238.763C101.886 238.657 102.173 238.605 102.492 238.605ZM102.492 242.465C102.919 242.465 103.238 242.322 103.448 242.038C103.659 241.75 103.764 241.35 103.764 240.838C103.764 240.323 103.659 239.921 103.448 239.634C103.238 239.346 102.919 239.203 102.492 239.203C102.276 239.203 102.086 239.24 101.924 239.314C101.765 239.388 101.631 239.494 101.523 239.634C101.417 239.773 101.338 239.946 101.284 240.15C101.232 240.353 101.207 240.582 101.207 240.838C101.207 241.35 101.312 241.75 101.523 242.038C101.736 242.322 102.059 242.465 102.492 242.465ZM109.242 238.673V242.999H108.789C108.681 242.999 108.613 242.946 108.584 242.841L108.524 242.375C108.337 242.583 108.126 242.751 107.892 242.879C107.659 243.004 107.391 243.067 107.09 243.067C106.853 243.067 106.644 243.028 106.462 242.952C106.283 242.872 106.132 242.761 106.009 242.619C105.887 242.476 105.794 242.304 105.732 242.102C105.672 241.9 105.642 241.676 105.642 241.431V238.673H106.402V241.431C106.402 241.759 106.476 242.012 106.624 242.192C106.775 242.371 107.004 242.461 107.312 242.461C107.537 242.461 107.746 242.408 107.939 242.303C108.136 242.194 108.317 242.046 108.482 241.858V238.673H109.242ZM111.339 239.54C111.476 239.244 111.644 239.013 111.843 238.848C112.042 238.68 112.286 238.596 112.573 238.596C112.664 238.596 112.751 238.606 112.834 238.626C112.919 238.646 112.995 238.677 113.06 238.72L113.005 239.288C112.987 239.359 112.945 239.395 112.876 239.395C112.837 239.395 112.778 239.386 112.701 239.369C112.625 239.352 112.538 239.343 112.441 239.343C112.304 239.343 112.182 239.363 112.074 239.403C111.968 239.443 111.873 239.503 111.788 239.583C111.705 239.659 111.63 239.756 111.561 239.873C111.496 239.987 111.436 240.118 111.382 240.266V242.999H110.618V238.673H111.053C111.136 238.673 111.193 238.689 111.224 238.72C111.255 238.751 111.277 238.805 111.288 238.882L111.339 239.54ZM116.362 242.999V239.322L115.884 239.267C115.821 239.252 115.771 239.231 115.734 239.203C115.697 239.171 115.679 239.127 115.679 239.07V238.758H116.362V238.519C116.362 238.255 116.403 238.013 116.486 237.793C116.568 237.571 116.692 237.381 116.857 237.221C117.022 237.062 117.227 236.938 117.472 236.85C117.72 236.762 118.006 236.717 118.33 236.717C118.438 236.717 118.55 236.725 118.663 236.739C118.777 236.753 118.875 236.774 118.958 236.803L118.928 237.2C118.925 237.228 118.914 237.248 118.894 237.26C118.877 237.271 118.853 237.278 118.821 237.281C118.79 237.284 118.75 237.285 118.702 237.285C118.656 237.283 118.604 237.281 118.544 237.281C118.037 237.281 117.67 237.386 117.442 237.597C117.214 237.805 117.101 238.119 117.101 238.541V238.758H119.714V242.999H118.949V239.309H117.122V242.999H116.362ZM121.847 239.301C121.941 239.195 122.04 239.1 122.146 239.015C122.251 238.929 122.362 238.857 122.479 238.797C122.598 238.734 122.724 238.687 122.854 238.656C122.988 238.622 123.132 238.605 123.286 238.605C123.522 238.605 123.73 238.645 123.909 238.724C124.091 238.801 124.242 238.912 124.362 239.057C124.484 239.2 124.577 239.372 124.639 239.574C124.702 239.776 124.733 240 124.733 240.244V242.999H123.969V240.244C123.969 239.917 123.893 239.664 123.743 239.484C123.595 239.302 123.368 239.211 123.064 239.211C122.839 239.211 122.628 239.265 122.432 239.373C122.238 239.482 122.059 239.628 121.894 239.813V242.999H121.129V238.673H121.586C121.694 238.673 121.761 238.726 121.787 238.831L121.847 239.301ZM127.569 240.885C127.723 240.885 127.858 240.864 127.975 240.821C128.092 240.778 128.19 240.718 128.27 240.642C128.349 240.565 128.409 240.474 128.449 240.368C128.489 240.26 128.509 240.142 128.509 240.014C128.509 239.749 128.428 239.538 128.265 239.382C128.106 239.225 127.874 239.147 127.569 239.147C127.262 239.147 127.027 239.225 126.865 239.382C126.706 239.538 126.626 239.749 126.626 240.014C126.626 240.142 126.646 240.26 126.686 240.368C126.728 240.474 126.789 240.565 126.869 240.642C126.949 240.718 127.047 240.778 127.164 240.821C127.281 240.864 127.416 240.885 127.569 240.885ZM128.94 243.233C128.94 243.128 128.91 243.043 128.85 242.977C128.791 242.912 128.71 242.86 128.607 242.823C128.507 242.786 128.391 242.761 128.257 242.747C128.123 242.73 127.981 242.717 127.83 242.708C127.682 242.7 127.531 242.691 127.377 242.683C127.224 242.674 127.076 242.66 126.933 242.64C126.774 242.714 126.643 242.808 126.54 242.922C126.441 243.033 126.391 243.164 126.391 243.315C126.391 243.411 126.415 243.501 126.464 243.584C126.515 243.669 126.592 243.742 126.694 243.801C126.797 243.864 126.925 243.912 127.078 243.946C127.235 243.983 127.419 244.002 127.629 244.002C127.834 244.002 128.018 243.983 128.18 243.946C128.342 243.909 128.479 243.857 128.59 243.788C128.704 243.72 128.791 243.639 128.85 243.545C128.91 243.451 128.94 243.347 128.94 243.233ZM129.713 238.844V239.126C129.713 239.22 129.653 239.279 129.534 239.305L129.043 239.369C129.139 239.557 129.188 239.765 129.188 239.992C129.188 240.203 129.146 240.395 129.064 240.569C128.984 240.74 128.873 240.886 128.731 241.009C128.589 241.131 128.418 241.225 128.218 241.291C128.019 241.356 127.803 241.389 127.569 241.389C127.367 241.389 127.177 241.365 126.997 241.316C126.906 241.373 126.836 241.434 126.788 241.5C126.74 241.562 126.715 241.626 126.715 241.692C126.715 241.794 126.757 241.873 126.839 241.927C126.925 241.978 127.036 242.015 127.172 242.038C127.309 242.061 127.464 242.075 127.638 242.08C127.814 242.086 127.994 242.096 128.176 242.11C128.361 242.122 128.54 242.143 128.714 242.174C128.89 242.206 129.047 242.257 129.183 242.328C129.32 242.399 129.43 242.498 129.512 242.623C129.598 242.748 129.64 242.91 129.64 243.11C129.64 243.295 129.593 243.474 129.499 243.648C129.408 243.821 129.276 243.975 129.102 244.109C128.929 244.245 128.715 244.354 128.462 244.433C128.211 244.516 127.928 244.557 127.612 244.557C127.296 244.557 127.02 244.526 126.784 244.463C126.548 244.4 126.351 244.317 126.195 244.211C126.038 244.106 125.92 243.983 125.84 243.844C125.763 243.707 125.725 243.564 125.725 243.413C125.725 243.199 125.792 243.018 125.926 242.87C126.059 242.722 126.243 242.604 126.476 242.516C126.348 242.459 126.246 242.384 126.169 242.29C126.095 242.193 126.058 242.063 126.058 241.901C126.058 241.839 126.069 241.774 126.092 241.709C126.115 241.641 126.149 241.574 126.195 241.508C126.243 241.44 126.301 241.376 126.37 241.316C126.438 241.256 126.518 241.204 126.609 241.158C126.395 241.039 126.229 240.881 126.109 240.684C125.99 240.485 125.93 240.254 125.93 239.992C125.93 239.782 125.97 239.591 126.049 239.42C126.132 239.247 126.246 239.1 126.391 238.981C126.536 238.858 126.708 238.764 126.908 238.699C127.11 238.633 127.33 238.6 127.569 238.6C127.757 238.6 127.932 238.622 128.095 238.665C128.257 238.704 128.405 238.764 128.539 238.844H129.713ZM133.498 240.364C133.498 240.187 133.472 240.027 133.421 239.881C133.373 239.733 133.3 239.607 133.203 239.501C133.109 239.393 132.994 239.311 132.858 239.254C132.721 239.194 132.566 239.164 132.392 239.164C132.028 239.164 131.739 239.271 131.525 239.484C131.315 239.695 131.184 239.988 131.132 240.364H133.498ZM134.113 242.392C134.019 242.506 133.906 242.606 133.776 242.691C133.645 242.774 133.504 242.842 133.353 242.896C133.205 242.95 133.051 242.99 132.892 243.016C132.732 243.044 132.574 243.058 132.418 243.058C132.119 243.058 131.843 243.008 131.589 242.909C131.339 242.806 131.121 242.658 130.936 242.465C130.754 242.268 130.612 242.026 130.509 241.739C130.407 241.451 130.355 241.121 130.355 240.748C130.355 240.447 130.401 240.165 130.492 239.903C130.586 239.641 130.72 239.415 130.893 239.224C131.067 239.03 131.279 238.879 131.53 238.771C131.78 238.66 132.062 238.605 132.375 238.605C132.634 238.605 132.873 238.649 133.092 238.737C133.314 238.823 133.505 238.948 133.665 239.113C133.827 239.275 133.953 239.477 134.045 239.719C134.136 239.958 134.181 240.232 134.181 240.539C134.181 240.659 134.168 240.738 134.143 240.778C134.117 240.818 134.069 240.838 133.998 240.838H131.107C131.115 241.111 131.152 241.349 131.218 241.551C131.286 241.753 131.38 241.923 131.5 242.059C131.619 242.193 131.762 242.294 131.927 242.362C132.092 242.428 132.277 242.461 132.482 242.461C132.672 242.461 132.836 242.439 132.973 242.396C133.112 242.351 133.232 242.303 133.331 242.251C133.431 242.2 133.514 242.153 133.579 242.11C133.647 242.065 133.706 242.042 133.754 242.042C133.817 242.042 133.865 242.066 133.899 242.115L134.113 242.392ZM136.007 239.54C136.144 239.244 136.312 239.013 136.511 238.848C136.71 238.68 136.954 238.596 137.241 238.596C137.332 238.596 137.419 238.606 137.502 238.626C137.587 238.646 137.663 238.677 137.728 238.72L137.672 239.288C137.655 239.359 137.613 239.395 137.544 239.395C137.505 239.395 137.446 239.386 137.369 239.369C137.292 239.352 137.206 239.343 137.109 239.343C136.972 239.343 136.85 239.363 136.742 239.403C136.636 239.443 136.541 239.503 136.456 239.583C136.373 239.659 136.298 239.756 136.229 239.873C136.164 239.987 136.104 240.118 136.05 240.266V242.999H135.286V238.673H135.721C135.804 238.673 135.861 238.689 135.892 238.72C135.923 238.751 135.945 238.805 135.956 238.882L136.007 239.54Z" fill="#111111"/>
<path d="M81.4259 326.272C81.0754 326.811 80.934 327.459 81.0287 328.095C81.1234 328.73 81.4476 329.309 81.9398 329.721C82.3908 330.043 82.9277 330.222 83.4812 330.236C83.8794 330.232 84.2714 330.137 84.6275 329.959C84.9837 329.78 85.2945 329.523 85.5365 329.206C86.6294 327.777 87.8506 326.45 89.1847 325.243C92.9832 322.062 97.4317 319.755 102.217 318.483C107.002 317.211 112.007 317.006 116.88 317.882C122.808 318.887 128.391 321.364 133.117 325.088C133.655 325.512 134.339 325.703 135.018 325.621C135.697 325.539 136.317 325.19 136.739 324.651C137.161 324.112 137.353 323.426 137.271 322.746C137.189 322.065 136.841 321.445 136.302 321.022C130.864 316.745 124.427 313.928 117.599 312.838C112.018 311.872 106.292 312.161 100.836 313.683C95.3801 315.205 90.3297 317.923 86.0504 321.64C84.3629 323.03 82.8141 324.582 81.4259 326.272Z" fill="white" fill-opacity="0.5"/>
<path d="M140.309 350.312C140.992 348.999 141.407 347.562 141.53 346.086C141.654 344.611 141.484 343.125 141.028 341.716C140.765 340.91 140.456 340.119 140.103 339.348C138 334.572 134.734 330.402 130.605 327.218C126.476 324.034 121.615 321.94 116.468 321.126C111.162 320.199 105.706 320.702 100.659 322.584C95.6118 324.465 91.1548 327.657 87.7449 331.833C84.8569 335.977 83.0281 340.767 82.419 345.784C81.8098 350.801 82.4388 355.89 84.2509 360.607C84.4417 361.262 84.8845 361.815 85.4819 362.143C86.0794 362.471 86.7825 362.548 87.4366 362.357C88.0851 362.144 88.6251 361.686 88.9417 361.081C89.2584 360.475 89.3268 359.769 89.1322 359.114C87.5488 355.163 86.9687 350.88 87.444 346.648C87.9193 342.417 89.4351 338.37 91.8555 334.87C94.6957 331.44 98.3972 328.831 102.579 327.311C106.76 325.791 111.271 325.415 115.646 326.222C119.945 326.9 124.007 328.645 127.462 331.297C130.917 333.949 133.655 337.424 135.428 341.407C135.685 342.076 135.941 342.694 136.147 343.363C136.621 344.919 136.473 346.598 135.736 348.047C135.17 349.257 134.156 350.198 132.91 350.673C131.074 351.23 129.096 351.086 127.36 350.269C125.623 349.451 124.25 348.018 123.507 346.246C122.752 343.882 121.415 341.747 119.619 340.038C117.823 338.328 115.626 337.1 113.231 336.466C110.522 335.946 107.717 336.366 105.279 337.657C102.841 338.949 100.916 341.034 99.8197 343.569C98.9115 346.931 98.9084 350.474 99.811 353.837C100.714 357.201 102.489 360.265 104.958 362.717C109.829 367.983 116.227 371.584 123.25 373.012H123.61C124.291 373.053 124.961 372.821 125.472 372.368C125.982 371.914 126.292 371.275 126.333 370.593C126.374 369.91 126.142 369.24 125.69 368.728C125.237 368.216 124.599 367.906 123.918 367.865C118.149 366.586 112.901 363.59 108.863 359.269C107.05 357.491 105.702 355.293 104.94 352.868C104.178 350.444 104.026 347.868 104.496 345.371C105.135 344.034 106.18 342.936 107.482 342.233C108.784 341.53 110.275 341.259 111.74 341.459C114.001 341.973 116.416 343.209 118.677 348.305C119.914 351.288 122.238 353.688 125.177 355.017C128.117 356.346 131.451 356.504 134.503 355.46C137.035 354.569 139.119 352.722 140.309 350.312Z" fill="white" fill-opacity="0.5"/>
<path d="M134.606 362.15C134.606 361.468 134.335 360.813 133.853 360.331C133.372 359.848 132.718 359.577 132.037 359.577C121.76 359.577 115.697 355.665 113.745 348.047C113.574 347.364 113.14 346.777 112.538 346.415C111.936 346.053 111.215 345.946 110.533 346.116C109.852 346.287 109.266 346.722 108.905 347.325C108.543 347.928 108.436 348.651 108.606 349.333C110.405 356.334 115.903 364.776 131.883 364.776C132.237 364.797 132.592 364.745 132.925 364.622C133.259 364.499 133.563 364.308 133.819 364.061C134.075 363.815 134.277 363.518 134.412 363.189C134.547 362.86 134.614 362.506 134.606 362.15Z" fill="white" fill-opacity="0.5"/>
<path d="M113.642 333.946C116.808 334.501 119.783 335.849 122.289 337.865C124.795 339.881 126.752 342.499 127.978 345.476C128.286 346.082 128.821 346.541 129.466 346.754C130.111 346.966 130.814 346.914 131.42 346.608C131.725 346.461 131.997 346.253 132.219 345.998C132.442 345.743 132.611 345.446 132.717 345.124C132.822 344.802 132.862 344.463 132.833 344.125C132.805 343.787 132.709 343.459 132.551 343.159C130.958 339.41 128.438 336.128 125.229 333.625C122.02 331.121 118.226 329.478 114.207 328.85C110.049 328.184 105.787 328.78 101.969 330.559C98.1513 332.339 94.9515 335.221 92.7809 338.836C87.9509 347.071 89.441 361.536 103.571 375.279C104.06 375.736 104.701 375.994 105.37 376C105.883 376.003 106.386 375.852 106.813 375.566C107.239 375.28 107.571 374.873 107.765 374.396C107.958 373.92 108.005 373.396 107.898 372.893C107.792 372.39 107.538 371.93 107.168 371.573C94.9903 359.786 93.3974 347.947 97.1997 341.461C98.9224 338.75 101.392 336.598 104.31 335.265C107.228 333.931 110.47 333.473 113.642 333.946Z" fill="white" fill-opacity="0.5"/>
<path d="M91.189 313.456C91.5278 313.529 91.8779 313.529 92.2166 313.456C101.871 308.965 112.821 308.123 123.046 311.089C123.384 311.197 123.741 311.231 124.093 311.188C124.445 311.146 124.784 311.028 125.086 310.842C125.389 310.656 125.648 310.407 125.845 310.112C126.043 309.817 126.175 309.483 126.232 309.133C126.333 308.805 126.366 308.46 126.329 308.119C126.293 307.778 126.187 307.448 126.018 307.149C125.85 306.85 125.623 306.589 125.35 306.381C125.078 306.174 124.766 306.024 124.433 305.941C113.02 302.65 100.807 303.563 90.0072 308.515C89.3879 308.797 88.9024 309.309 88.6531 309.943C88.4038 310.577 88.4103 311.283 88.6713 311.912C88.8815 312.398 89.2361 312.806 89.6866 313.083C90.1371 313.359 90.6618 313.49 91.189 313.456Z" fill="white" fill-opacity="0.5"/>
</g>
<path fill-rule="evenodd" clip-rule="evenodd" d="M86.5261 127.18C89.0539 127.18 91.1031 125.131 91.1031 122.603C91.1031 120.075 89.0539 118.026 86.5261 118.026C83.9984 118.026 81.9492 120.075 81.9492 122.603C81.9492 125.131 83.9984 127.18 86.5261 127.18Z" fill="#262C2D"/>
<path fill-rule="evenodd" clip-rule="evenodd" d="M86.5266 125.463C88.1064 125.463 89.3872 124.183 89.3872 122.603C89.3872 121.023 88.1064 119.742 86.5266 119.742C84.9467 119.742 83.666 121.023 83.666 122.603C83.666 124.183 84.9467 125.463 86.5266 125.463Z" fill="#121515"/>
<path opacity="0.4" fill-rule="evenodd" clip-rule="evenodd" d="M86.5252 122.03C86.8412 122.03 87.0974 121.774 87.0974 121.458C87.0974 121.142 86.8412 120.886 86.5252 120.886C86.2093 120.886 85.9531 121.142 85.9531 121.458C85.9531 121.774 86.2093 122.03 86.5252 122.03Z" fill="#636F73"/>
<path d="M116.225 191.554H115.389V188.777C115.389 187.501 114.909 186.3 114.04 185.399C113.168 184.495 112.011 184 110.779 184H110.65C109.418 184 108.259 184.497 107.389 185.399C106.517 186.302 106.04 187.501 106.04 188.777V191.554H105.204C104.54 191.554 104 192.114 104 192.802V201.752C104 202.441 104.54 203 105.204 203H116.227C116.891 203 117.431 202.441 117.431 201.752V192.802C117.429 192.114 116.889 191.554 116.225 191.554ZM111.685 200.123C111.691 200.156 111.681 200.19 111.661 200.214C111.642 200.238 111.612 200.254 111.58 200.254H109.795C109.763 200.254 109.733 200.238 109.714 200.214C109.695 200.19 109.686 200.156 109.69 200.123L109.982 198.4C109.626 198.156 109.408 197.739 109.408 197.295C109.408 196.562 109.982 195.97 110.687 195.97C111.391 195.97 111.966 196.565 111.966 197.295C111.966 197.739 111.747 198.156 111.391 198.4L111.685 200.123ZM107.994 188.799C107.994 187.27 109.193 186.027 110.669 186.027H110.753C112.229 186.027 113.429 187.27 113.429 188.799V191.554H107.994V188.799Z" fill="white"/>
<path d="M372.225 191.554H371.389V188.777C371.389 187.501 370.909 186.3 370.04 185.399C369.168 184.495 368.011 184 366.779 184H366.65C365.418 184 364.259 184.497 363.389 185.399C362.517 186.302 362.04 187.501 362.04 188.777V191.554H361.204C360.54 191.554 360 192.114 360 192.802V201.752C360 202.441 360.54 203 361.204 203H372.227C372.891 203 373.431 202.441 373.431 201.752V192.802C373.429 192.114 372.889 191.554 372.225 191.554ZM367.685 200.123C367.691 200.156 367.681 200.19 367.661 200.214C367.642 200.238 367.612 200.254 367.58 200.254H365.795C365.763 200.254 365.733 200.238 365.714 200.214C365.695 200.19 365.686 200.156 365.69 200.123L365.982 198.4C365.626 198.156 365.408 197.739 365.408 197.295C365.408 196.562 365.982 195.97 366.687 195.97C367.391 195.97 367.966 196.565 367.966 197.295C367.966 197.739 367.747 198.156 367.391 198.4L367.685 200.123ZM363.994 188.799C363.994 187.27 365.193 186.027 366.669 186.027H366.753C368.229 186.027 369.429 187.27 369.429 188.799V191.554H363.994V188.799Z" fill="white"/>
<path d="M113 19.1259C113 8.56295 121.563 0 132.126 0H346.973C357.536 0 366.099 8.56295 366.099 19.1259V527.874C366.099 538.437 357.536 547 346.973 547H132.126C121.563 547 113 538.437 113 527.874V19.1259Z" fill="#3A4245"/>
<path d="M116.826 19.1259C116.826 10.6755 123.677 3.8252 132.127 3.8252H346.974C355.425 3.8252 362.275 10.6756 362.275 19.1259V527.874C362.275 536.324 355.425 543.175 346.974 543.175H132.127C123.677 543.175 116.826 536.324 116.826 527.874V19.1259Z" fill="#121515"/>
<path d="M366.1 198.909H366.737C367.441 198.909 368.012 199.405 368.012 200.017L368.012 230.953C368.012 231.565 367.441 232.061 366.737 232.061H366.1L366.1 198.909Z" fill="#C4C4C4"/>
<path d="M366.1 105.83H366.737C367.441 105.83 368.012 106.774 368.012 107.939L368.012 166.837C368.012 168.001 367.441 168.945 366.737 168.945H366.1L366.1 105.83Z" fill="#C4C4C4"/>
<mask id="mask2" mask-type="alpha" maskUnits="userSpaceOnUse" x="121" y="8" width="237" height="526">
<path d="M121.287 25.5014C121.287 15.9947 128.994 8.28809 138.5 8.28809H340.597C350.104 8.28809 357.81 15.9947 357.81 25.5014V516.399C357.81 525.906 350.104 533.612 340.597 533.612H138.5C128.994 533.612 121.287 525.906 121.287 516.399V25.5014Z" fill="white"/>
</mask>
<g mask="url(#mask2)">
<path d="M121.662 25.2133C121.662 15.7067 129.369 8 138.875 8H340.972C350.479 8 358.185 15.7067 358.185 25.2133V516.111C358.185 525.617 350.479 533.324 340.972 533.324H138.875C129.369 533.324 121.662 525.617 121.662 516.111V25.2133Z" fill="white"/>
<circle opacity="0.2" cx="235.66" cy="441" r="187" fill="#A8B0AF"/>
<rect x="195.66" y="465.999" width="38" height="36" rx="6" fill="#006053" fill-opacity="0.1"/>
<path d="M223.347 486.947C221.207 486.571 220.243 484.234 220.204 484.135C220.201 484.129 220.199 484.122 220.195 484.116C220.086 483.879 220.06 483.684 220.12 483.536C220.237 483.243 220.685 483.092 220.981 482.992C221.067 482.963 221.148 482.935 221.215 482.907C221.507 482.785 221.715 482.651 221.853 482.501C222.017 482.321 222.049 482.148 222.047 482.036C222.042 481.763 221.846 481.52 221.533 481.401C221.428 481.355 221.307 481.331 221.185 481.331C221.102 481.331 220.978 481.342 220.861 481.401C220.611 481.526 220.387 481.594 220.194 481.604C220.092 481.598 220.02 481.575 219.973 481.553C219.979 481.446 219.985 481.336 219.992 481.223L219.995 481.174C220.064 480.019 220.149 478.582 219.791 477.729C219.546 477.144 219.217 476.642 218.812 476.234C218.473 475.893 218.079 475.616 217.641 475.411C216.88 475.052 216.17 474.999 215.814 474.999H215.813C215.799 474.999 215.786 474.999 215.774 474.999C215.675 475 215.514 475.002 215.499 475.002C215.144 475.002 214.433 475.056 213.67 475.414C213.233 475.619 212.841 475.895 212.503 476.236C212.1 476.644 211.772 477.145 211.528 477.728C211.17 478.58 211.255 480.017 211.323 481.171V481.173C211.33 481.297 211.338 481.426 211.345 481.552C211.293 481.576 211.208 481.604 211.083 481.604C210.881 481.604 210.641 481.536 210.37 481.4C210.29 481.361 210.199 481.34 210.099 481.34C209.938 481.34 209.767 481.39 209.62 481.483C209.434 481.6 209.314 481.763 209.281 481.945C209.26 482.065 209.261 482.302 209.509 482.544C209.646 482.676 209.846 482.798 210.105 482.907C210.173 482.936 210.254 482.963 210.339 482.992C210.635 483.092 211.084 483.243 211.201 483.536C211.26 483.684 211.234 483.879 211.125 484.116C211.122 484.122 211.119 484.129 211.117 484.135C211.089 484.203 210.834 484.817 210.311 485.464C210.014 485.832 209.687 486.14 209.339 486.379C208.914 486.672 208.455 486.861 207.974 486.946C207.785 486.979 207.65 487.158 207.661 487.362C207.664 487.42 207.677 487.479 207.7 487.536V487.537C207.777 487.728 207.954 487.889 208.242 488.03C208.594 488.204 209.12 488.35 209.807 488.465C209.842 488.535 209.878 488.711 209.903 488.832C209.929 488.96 209.956 489.092 209.995 489.232C210.037 489.383 210.145 489.564 210.424 489.564C210.53 489.564 210.651 489.539 210.792 489.51C210.998 489.467 211.28 489.409 211.631 489.409C211.826 489.409 212.028 489.427 212.231 489.463C212.623 489.532 212.961 489.786 213.352 490.081C213.924 490.512 214.572 490.999 215.562 490.999C215.589 490.999 215.616 490.998 215.643 490.996C215.675 490.998 215.716 490.999 215.758 490.999C216.748 490.999 217.396 490.512 217.968 490.082L217.969 490.081C218.36 489.787 218.698 489.533 219.09 489.464C219.293 489.428 219.495 489.41 219.69 489.41C220.026 489.41 220.292 489.456 220.529 489.505C220.684 489.537 220.804 489.553 220.897 489.553H220.906H220.915C221.119 489.553 221.269 489.433 221.326 489.225C221.364 489.088 221.391 488.96 221.418 488.828C221.441 488.715 221.479 488.534 221.513 488.464C222.2 488.348 222.726 488.203 223.079 488.029C223.366 487.888 223.543 487.726 223.62 487.537C223.643 487.48 223.657 487.421 223.66 487.361C223.671 487.159 223.536 486.979 223.347 486.947Z" fill="#111111" fill-opacity="0.6"/>
<rect x="245.66" y="418" width="38" height="36" rx="6" fill="#006053" fill-opacity="0.1"/>
<circle cx="240.16" cy="270.5" r="76.5" fill="#006053"/>
<path d="M255.978 265.06H253.427V256.583C253.427 252.687 251.962 249.02 249.307 246.269C246.645 243.511 243.114 242 239.353 242H238.961C235.2 242 231.662 243.518 229.007 246.269C226.345 249.027 224.886 252.687 224.886 256.583V265.06H222.336C220.308 265.06 218.66 266.768 218.66 268.869V296.192C218.66 298.292 220.308 300 222.336 300H255.985C258.012 300 259.66 298.292 259.66 296.192V268.869C259.654 266.768 258.006 265.06 255.978 265.06ZM242.12 291.218C242.139 291.319 242.106 291.421 242.048 291.496C241.989 291.57 241.897 291.617 241.799 291.617H236.351C236.253 291.617 236.162 291.57 236.103 291.496C236.044 291.421 236.018 291.319 236.031 291.218L236.92 285.959C235.835 285.214 235.167 283.94 235.167 282.584C235.167 280.348 236.92 278.539 239.072 278.539C241.224 278.539 242.976 280.355 242.976 282.584C242.976 283.94 242.309 285.214 241.224 285.959L242.12 291.218ZM230.851 256.651C230.851 251.982 234.513 248.187 239.02 248.187H239.275C243.781 248.187 247.443 251.982 247.443 256.651V265.06H230.851V256.651Z" fill="white"/>
</g>
<path fill-rule="evenodd" clip-rule="evenodd" d="M239.55 28.0512C243.247 28.0512 246.244 25.0542 246.244 21.3571C246.244 17.6601 243.247 14.6631 239.55 14.6631C235.852 14.6631 232.855 17.6601 232.855 21.3571C232.855 25.0542 235.852 28.0512 239.55 28.0512Z" fill="#262C2D"/>
<path fill-rule="evenodd" clip-rule="evenodd" d="M239.549 25.5409C241.86 25.5409 243.733 23.6678 243.733 21.3571C243.733 19.0465 241.86 17.1733 239.549 17.1733C237.238 17.1733 235.365 19.0465 235.365 21.3571C235.365 23.6678 237.238 25.5409 239.549 25.5409Z" fill="#121515"/>
<path opacity="0.4" fill-rule="evenodd" clip-rule="evenodd" d="M239.55 20.5202C240.012 20.5202 240.386 20.1456 240.386 19.6834C240.386 19.2213 240.012 18.8467 239.55 18.8467C239.088 18.8467 238.713 19.2213 238.713 19.6834C238.713 20.1456 239.088 20.5202 239.55 20.5202Z" fill="#636F73"/>
<path d="M198.882 161.045L196.113 153.804C195.914 153.31 195.714 152.686 195.515 151.932C195.42 152.305 195.32 152.651 195.216 152.972C195.121 153.293 195.025 153.579 194.93 153.83L192.174 161.045H198.882ZM204.355 168H202.223C201.98 168 201.781 167.939 201.625 167.818C201.469 167.697 201.356 167.541 201.287 167.35L199.636 163.021H191.407L189.756 167.35C189.695 167.515 189.583 167.666 189.418 167.805C189.253 167.935 189.054 168 188.82 168H186.688L194.124 149.332H196.919L204.355 168ZM208.65 164.75C209.066 165.296 209.512 165.677 209.989 165.894C210.474 166.111 211.016 166.219 211.614 166.219C212.775 166.219 213.672 165.803 214.305 164.971C214.946 164.13 215.267 162.908 215.267 161.305C215.267 160.464 215.193 159.749 215.046 159.16C214.907 158.562 214.699 158.077 214.422 157.704C214.153 157.323 213.82 157.045 213.421 156.872C213.022 156.69 212.572 156.599 212.069 156.599C211.332 156.599 210.691 156.764 210.145 157.093C209.608 157.422 209.109 157.89 208.65 158.497V164.75ZM208.52 156.768C208.797 156.439 209.092 156.14 209.404 155.871C209.725 155.594 210.067 155.36 210.431 155.169C210.795 154.97 211.181 154.818 211.588 154.714C212.004 154.601 212.446 154.545 212.914 154.545C213.668 154.545 214.348 154.692 214.955 154.987C215.57 155.282 216.095 155.715 216.528 156.287C216.961 156.859 217.295 157.565 217.529 158.406C217.772 159.247 217.893 160.213 217.893 161.305C217.893 162.284 217.759 163.194 217.49 164.035C217.23 164.867 216.853 165.591 216.359 166.206C215.874 166.821 215.276 167.307 214.565 167.662C213.863 168.009 213.07 168.182 212.186 168.182C211.397 168.182 210.721 168.052 210.158 167.792C209.595 167.532 209.092 167.168 208.65 166.7V172.433H206.115V154.792H207.636C207.991 154.792 208.212 154.961 208.299 155.299L208.52 156.768ZM223.275 164.75C223.691 165.296 224.137 165.677 224.614 165.894C225.099 166.111 225.641 166.219 226.239 166.219C227.4 166.219 228.297 165.803 228.93 164.971C229.571 164.13 229.892 162.908 229.892 161.305C229.892 160.464 229.818 159.749 229.671 159.16C229.532 158.562 229.324 158.077 229.047 157.704C228.778 157.323 228.445 157.045 228.046 156.872C227.647 156.69 227.197 156.599 226.694 156.599C225.957 156.599 225.316 156.764 224.77 157.093C224.233 157.422 223.734 157.89 223.275 158.497V164.75ZM223.145 156.768C223.422 156.439 223.717 156.14 224.029 155.871C224.35 155.594 224.692 155.36 225.056 155.169C225.42 154.97 225.806 154.818 226.213 154.714C226.629 154.601 227.071 154.545 227.539 154.545C228.293 154.545 228.973 154.692 229.58 154.987C230.195 155.282 230.72 155.715 231.153 156.287C231.586 156.859 231.92 157.565 232.154 158.406C232.397 159.247 232.518 160.213 232.518 161.305C232.518 162.284 232.384 163.194 232.115 164.035C231.855 164.867 231.478 165.591 230.984 166.206C230.499 166.821 229.901 167.307 229.19 167.662C228.488 168.009 227.695 168.182 226.811 168.182C226.022 168.182 225.346 168.052 224.783 167.792C224.22 167.532 223.717 167.168 223.275 166.7V172.433H220.74V154.792H222.261C222.616 154.792 222.837 154.961 222.924 155.299L223.145 156.768ZM253.147 165.673V168H242.461V149.332H245.23V165.673H253.147ZM260.088 154.584C261.058 154.584 261.934 154.744 262.714 155.065C263.502 155.377 264.17 155.832 264.716 156.43C265.27 157.019 265.695 157.734 265.99 158.575C266.284 159.407 266.432 160.343 266.432 161.383C266.432 162.423 266.284 163.363 265.99 164.204C265.695 165.045 265.27 165.76 264.716 166.349C264.17 166.938 263.502 167.393 262.714 167.714C261.934 168.026 261.058 168.182 260.088 168.182C259.108 168.182 258.224 168.026 257.436 167.714C256.656 167.393 255.988 166.938 255.434 166.349C254.879 165.76 254.45 165.045 254.147 164.204C253.852 163.363 253.705 162.423 253.705 161.383C253.705 160.343 253.852 159.407 254.147 158.575C254.45 157.734 254.879 157.019 255.434 156.43C255.988 155.832 256.656 155.377 257.436 155.065C258.224 154.744 259.108 154.584 260.088 154.584ZM260.088 166.206C261.336 166.206 262.267 165.786 262.883 164.945C263.498 164.104 263.806 162.921 263.806 161.396C263.806 159.871 263.498 158.688 262.883 157.847C262.267 156.998 261.336 156.573 260.088 156.573C258.822 156.573 257.878 156.998 257.254 157.847C256.638 158.688 256.331 159.871 256.331 161.396C256.331 162.921 256.638 164.104 257.254 164.945C257.878 165.786 258.822 166.206 260.088 166.206ZM278.517 157.262C278.439 157.357 278.361 157.435 278.283 157.496C278.214 157.548 278.11 157.574 277.971 157.574C277.833 157.574 277.685 157.522 277.529 157.418C277.382 157.305 277.191 157.188 276.957 157.067C276.732 156.937 276.455 156.82 276.125 156.716C275.805 156.603 275.406 156.547 274.929 156.547C274.305 156.547 273.755 156.66 273.278 156.885C272.802 157.11 272.403 157.431 272.082 157.847C271.77 158.263 271.532 158.77 271.367 159.368C271.203 159.966 271.12 160.638 271.12 161.383C271.12 162.154 271.207 162.843 271.38 163.45C271.554 164.048 271.801 164.555 272.121 164.971C272.442 165.378 272.832 165.69 273.291 165.907C273.751 166.115 274.262 166.219 274.825 166.219C275.371 166.219 275.822 166.154 276.177 166.024C276.533 165.885 276.827 165.738 277.061 165.582C277.295 165.426 277.49 165.283 277.646 165.153C277.802 165.014 277.963 164.945 278.127 164.945C278.335 164.945 278.496 165.023 278.608 165.179L279.336 166.115C279.033 166.488 278.691 166.804 278.309 167.064C277.937 167.324 277.538 167.536 277.113 167.701C276.689 167.866 276.242 167.987 275.774 168.065C275.315 168.143 274.847 168.182 274.37 168.182C273.547 168.182 272.776 168.03 272.056 167.727C271.346 167.424 270.726 166.982 270.197 166.401C269.677 165.82 269.266 165.11 268.962 164.269C268.659 163.42 268.507 162.458 268.507 161.383C268.507 160.404 268.642 159.498 268.91 158.666C269.188 157.834 269.591 157.119 270.119 156.521C270.657 155.914 271.315 155.442 272.095 155.104C272.875 154.757 273.768 154.584 274.773 154.584C275.718 154.584 276.55 154.736 277.269 155.039C277.989 155.342 278.63 155.771 279.193 156.326L278.517 157.262ZM284.238 148.812V160.031H284.836C285.018 160.031 285.17 160.005 285.291 159.953C285.412 159.901 285.538 159.797 285.668 159.641L289.62 155.286C289.741 155.121 289.876 155 290.023 154.922C290.17 154.835 290.357 154.792 290.582 154.792H292.896L288.229 159.901C287.978 160.222 287.709 160.469 287.423 160.642C287.588 160.755 287.731 160.885 287.852 161.032C287.982 161.179 288.108 161.34 288.229 161.513L293.195 168H290.92C290.712 168 290.53 167.965 290.374 167.896C290.227 167.827 290.092 167.701 289.971 167.519L285.889 162.215C285.759 162.016 285.629 161.89 285.499 161.838C285.369 161.777 285.174 161.747 284.914 161.747H284.238V168H281.703V148.812H284.238Z" fill="#111111" fill-opacity="0.8"/>
<rect x="144.662" y="418" width="39" height="36" rx="6" fill="#006053" fill-opacity="0.1"/>
<path d="M172.475 431.776C171.812 432.077 171.106 432.277 170.371 432.373C171.128 431.905 171.705 431.169 171.977 430.282C171.271 430.718 170.492 431.026 169.661 431.198C168.991 430.458 168.036 430 166.994 430C164.972 430 163.345 431.701 163.345 433.786C163.345 434.086 163.369 434.374 163.429 434.649C160.393 434.495 157.707 432.987 155.902 430.69C155.587 431.257 155.402 431.905 155.402 432.603C155.402 433.914 156.054 435.076 157.024 435.748C156.438 435.737 155.862 435.56 155.375 435.282C155.375 435.294 155.375 435.309 155.375 435.324C155.375 437.163 156.64 438.691 158.3 439.043C158.003 439.127 157.679 439.167 157.343 439.167C157.109 439.167 156.873 439.153 156.652 439.103C157.125 440.602 158.467 441.703 160.064 441.739C158.821 442.747 157.244 443.353 155.536 443.353C155.237 443.353 154.949 443.34 154.662 443.302C156.28 444.383 158.197 445 160.264 445C166.984 445 170.658 439.231 170.658 434.23C170.658 434.063 170.652 433.901 170.644 433.741C171.369 433.208 171.978 432.542 172.475 431.776Z" fill="#111111" fill-opacity="0.6"/>
<rect x="195.662" y="418" width="38" height="36" rx="6" fill="#006053" fill-opacity="0.1"/>
<path d="M216.697 429.823H218.192L218.257 427.12C218 427.083 217.115 427 216.083 427C211.354 427 212.506 432.56 212.299 433.375H209.92L209.847 436.397H212.225L212.041 444H214.956L215.14 436.397H217.421L217.857 433.376H215.212C215.389 431.375 214.779 429.823 216.697 429.823Z" fill="#111111" fill-opacity="0.6"/>
<rect x="295.662" y="418" width="39" height="36" rx="6" fill="#006053" fill-opacity="0.1"/>
<path d="M324.506 431.082C324.412 430.707 324.221 430.362 323.951 430.084C323.681 429.806 323.343 429.604 322.97 429.499C321.609 429.167 316.162 429.167 316.162 429.167C316.162 429.167 310.715 429.167 309.354 429.531C308.981 429.636 308.643 429.838 308.373 430.116C308.103 430.394 307.912 430.738 307.818 431.114C307.569 432.496 307.447 433.898 307.454 435.302C307.445 436.717 307.567 438.129 307.818 439.522C307.921 439.886 308.117 440.217 308.386 440.483C308.655 440.749 308.988 440.942 309.354 441.042C310.715 441.406 316.162 441.406 316.162 441.406C316.162 441.406 321.609 441.406 322.97 441.042C323.343 440.936 323.681 440.734 323.951 440.456C324.221 440.178 324.412 439.834 324.506 439.458C324.753 438.087 324.875 436.696 324.87 435.302C324.879 433.887 324.757 432.475 324.506 431.082Z" fill="#111111" fill-opacity="0.6"/>
<path d="M314.381 437.891L318.933 435.302L314.381 432.713V437.891Z" fill="white" stroke="white" stroke-linecap="round" stroke-linejoin="round"/>
<rect x="144.662" y="466" width="39" height="36" rx="6" fill="#006053" fill-opacity="0.1"/>
<path d="M167.328 480.333C168.389 480.333 169.406 480.755 170.157 481.505C170.907 482.255 171.328 483.273 171.328 484.333V489H168.661V484.333C168.661 483.98 168.521 483.641 168.271 483.391C168.021 483.141 167.682 483 167.328 483C166.975 483 166.635 483.141 166.385 483.391C166.135 483.641 165.995 483.98 165.995 484.333V489H163.328V484.333C163.328 483.273 163.75 482.255 164.5 481.505C165.25 480.755 166.267 480.333 167.328 480.333Z" fill="#111111" fill-opacity="0.6"/>
<path d="M160.663 481H157.996V489H160.663V481Z" fill="#111111" fill-opacity="0.6"/>
<path d="M159.329 479C160.066 479 160.663 478.403 160.663 477.667C160.663 476.93 160.066 476.333 159.329 476.333C158.593 476.333 157.996 476.93 157.996 477.667C157.996 478.403 158.593 479 159.329 479Z" fill="#111111" fill-opacity="0.6"/>
<rect x="245.662" y="466" width="38" height="36" rx="6" fill="#006053" fill-opacity="0.1"/>
<g clip-path="url(#clip0)">
<path d="M265.664 475H265.66C261.249 475 257.662 478.588 257.662 483C257.662 484.75 258.226 486.372 259.185 487.689L258.188 490.661L261.263 489.678C262.528 490.516 264.037 491 265.664 491C270.075 491 273.662 487.411 273.662 483C273.662 478.589 270.075 475 265.664 475Z" fill="#111111" fill-opacity="0.6"/>
<path d="M269.857 485.062C269.694 485.494 269.047 485.853 268.531 485.958C268.178 486.028 267.717 486.085 266.165 485.48C264.18 484.707 262.902 482.811 262.802 482.688C262.707 482.565 262 481.684 262 480.773C262 479.862 262.492 479.418 262.691 479.228C262.854 479.071 263.123 479 263.381 479C263.465 479 263.54 479.004 263.608 479.007C263.806 479.015 263.906 479.026 264.037 479.321C264.2 479.69 264.596 480.601 264.644 480.694C264.692 480.788 264.74 480.915 264.672 481.038C264.609 481.165 264.553 481.221 264.454 481.329C264.354 481.437 264.26 481.52 264.16 481.636C264.069 481.736 263.966 481.844 264.081 482.031C264.195 482.213 264.592 482.822 265.177 483.311C265.931 483.942 266.542 484.143 266.761 484.229C266.924 484.293 267.118 484.278 267.237 484.159C267.388 484.005 267.575 483.751 267.765 483.501C267.9 483.322 268.07 483.3 268.249 483.363C268.432 483.423 269.397 483.871 269.595 483.964C269.794 484.058 269.925 484.102 269.973 484.181C270.02 484.259 270.02 484.628 269.857 485.062Z" fill="#FAFAFA"/>
</g>
<rect x="295.662" y="466" width="39" height="36" rx="6" fill="#006053" fill-opacity="0.1"/>
<path d="M317.05 479.723H316.974C316.1 479.725 315.228 479.819 314.374 480.005C313.99 480.077 313.611 480.177 313.242 480.304C312.567 480.562 311.983 481.011 311.561 481.598C310.761 482.662 310.561 483.824 311.047 485.074C311.296 485.773 311.807 486.347 312.472 486.674C313.196 487.03 314.018 487.133 314.808 486.969C315.477 486.862 316.11 486.598 316.656 486.198C316.926 485.984 317.178 485.744 317.456 485.51C317.472 485.528 317.487 485.547 317.5 485.566C317.816 486.017 318.173 486.438 318.567 486.823C318.64 486.896 318.738 486.94 318.842 486.945C318.946 486.95 319.048 486.917 319.129 486.851C319.662 486.404 320.195 485.956 320.729 485.508C320.757 485.477 320.776 485.439 320.785 485.398C320.809 485.332 320.816 485.261 320.805 485.191C320.795 485.121 320.767 485.055 320.725 484.998C320.601 484.818 320.485 484.632 320.351 484.458C320.142 484.171 320.004 483.839 319.951 483.488C319.921 483.322 319.905 483.153 319.905 482.984C319.905 481.5 319.905 480.015 319.905 478.529C319.916 478.146 319.864 477.763 319.751 477.397C319.575 476.813 319.214 476.303 318.723 475.943C317.914 475.382 316.965 475.058 315.982 475.007C315 474.956 314.022 475.18 313.16 475.653C312.662 475.909 312.229 476.275 311.893 476.723C311.556 477.17 311.325 477.688 311.217 478.237C311.203 478.293 311.201 478.352 311.212 478.409C311.223 478.466 311.247 478.519 311.282 478.565C311.317 478.612 311.361 478.649 311.413 478.676C311.465 478.702 311.522 478.716 311.579 478.717L312.59 478.807C312.842 478.829 313.094 478.853 313.346 478.873C313.441 478.886 313.538 478.865 313.62 478.815C313.701 478.765 313.764 478.688 313.796 478.597C313.869 478.243 314.052 477.922 314.32 477.679C314.588 477.437 314.927 477.286 315.286 477.249C315.623 477.182 315.973 477.222 316.286 477.365C316.52 477.465 316.719 477.632 316.856 477.846C316.994 478.061 317.063 478.311 317.056 478.565C317.056 478.915 317.056 479.265 317.056 479.615C317.054 479.649 317.052 479.685 317.05 479.723ZM316.664 483.998C316.493 484.274 316.277 484.521 316.026 484.728C315.878 484.855 315.702 484.944 315.512 484.987C315.322 485.03 315.124 485.026 314.936 484.976C314.778 484.937 314.626 484.877 314.484 484.798C314.325 484.71 314.189 484.586 314.085 484.437C313.981 484.288 313.912 484.118 313.884 483.938C313.777 483.53 313.791 483.1 313.924 482.7C314.085 482.268 314.394 481.907 314.796 481.682C315.079 481.5 315.403 481.393 315.738 481.37C316.152 481.344 316.568 481.324 316.982 481.302H317.054V481.42C317.054 481.82 317.054 482.232 317.054 482.638C317.061 483.12 316.925 483.593 316.664 483.998Z" fill="#111111" fill-opacity="0.6"/>
<path d="M309.503 488.2C309.303 488.092 309.103 487.98 308.903 487.866C308.771 487.788 308.641 487.71 308.503 487.626C308.303 487.496 308.103 487.36 307.903 487.225C307.889 487.212 307.873 487.202 307.855 487.195C307.837 487.189 307.818 487.186 307.799 487.187C307.78 487.189 307.761 487.195 307.745 487.204C307.728 487.213 307.714 487.226 307.703 487.242C307.677 487.268 307.662 487.304 307.662 487.342C307.662 487.379 307.677 487.415 307.703 487.442C307.859 487.618 308.019 487.792 308.185 487.962C308.281 488.062 308.385 488.15 308.487 488.246C308.814 488.567 309.167 488.86 309.543 489.122C309.743 489.266 309.953 489.404 310.165 489.534C310.435 489.698 310.707 489.864 310.991 490.006C311.275 490.148 311.549 490.262 311.831 490.382C312.002 490.457 312.177 490.524 312.355 490.582C312.699 490.71 313.055 490.803 313.417 490.86C313.743 490.892 314.067 490.958 314.396 490.99C314.596 491.01 314.814 490.99 315.024 490.99V491C315.372 490.98 315.722 490.972 316.068 490.936C316.356 490.906 316.64 490.852 316.924 490.794C317.208 490.736 317.504 490.664 317.792 490.582C318.006 490.52 318.214 490.436 318.422 490.356C318.604 490.292 318.782 490.22 318.956 490.138C319.19 490.022 319.418 489.892 319.644 489.76C319.87 489.628 320.044 489.522 320.224 489.392C320.37 489.292 320.51 489.183 320.642 489.066C320.842 488.896 321.027 488.72 321.215 488.542C321.243 488.509 321.261 488.468 321.265 488.425C321.268 488.382 321.258 488.338 321.235 488.302C321.204 488.271 321.166 488.249 321.124 488.237C321.082 488.226 321.039 488.225 320.997 488.236C320.906 488.268 320.822 488.316 320.734 488.354C320.334 488.526 319.934 488.694 319.534 488.87C319.136 489.036 318.726 489.175 318.308 489.286C318.108 489.344 317.908 489.402 317.708 489.454C317.578 489.486 317.448 489.512 317.308 489.54C317.108 489.584 316.908 489.638 316.708 489.668C316.508 489.698 316.294 489.7 316.086 489.712C315.94 489.712 315.796 489.734 315.65 489.736C315.312 489.736 314.972 489.736 314.634 489.726C314.402 489.726 314.169 489.692 313.935 489.672C313.799 489.66 313.663 489.652 313.535 489.63C313.227 489.576 312.921 489.512 312.615 489.454C312.27 489.388 311.931 489.291 311.603 489.164C311.331 489.056 311.061 488.946 310.793 488.832C310.581 488.742 310.369 488.652 310.163 488.552C309.975 488.438 309.741 488.316 309.503 488.2Z" fill="#111111" fill-opacity="0.6"/>
<path d="M323.629 487.557C323.671 487.335 323.697 487.11 323.705 486.883C323.705 486.76 323.661 486.641 323.581 486.548C323.5 486.455 323.389 486.395 323.267 486.377C323.062 486.342 322.855 486.325 322.647 486.325C322.296 486.328 321.946 486.369 321.603 486.447C321.169 486.55 320.754 486.724 320.377 486.961C320.341 486.985 320.329 487.045 320.305 487.089C320.349 487.107 320.397 487.118 320.445 487.121C320.591 487.101 320.733 487.059 320.879 487.047C321.191 487.019 321.505 487.005 321.841 486.985L322.511 487.041C322.577 487.051 322.641 487.074 322.698 487.109C322.755 487.144 322.804 487.191 322.841 487.247C322.879 487.302 322.905 487.365 322.917 487.431C322.929 487.497 322.927 487.564 322.911 487.629C322.851 487.799 322.825 487.981 322.771 488.155C322.671 488.476 322.571 488.794 322.459 489.112C322.407 489.262 322.335 489.404 322.279 489.552C322.271 489.591 322.271 489.631 322.279 489.67C322.317 489.672 322.356 489.668 322.393 489.658C322.442 489.635 322.485 489.603 322.521 489.564C322.72 489.347 322.908 489.12 323.083 488.884C323.24 488.644 323.374 488.39 323.483 488.125C323.554 487.943 323.603 487.752 323.629 487.557Z" fill="#111111" fill-opacity="0.6"/>
<path d="M268.75 428.5H261.25C259.179 428.5 257.5 430.179 257.5 432.25V439.75C257.5 441.821 259.179 443.5 261.25 443.5H268.75C270.821 443.5 272.5 441.821 272.5 439.75V432.25C272.5 430.179 270.821 428.5 268.75 428.5Z" fill="#111111" fill-opacity="0.6"/>
<path d="M268.001 435.527C268.093 436.151 267.987 436.789 267.696 437.349C267.405 437.909 266.946 438.363 266.382 438.647C265.818 438.931 265.18 439.029 264.557 438.929C263.934 438.829 263.358 438.535 262.912 438.089C262.466 437.642 262.172 437.067 262.071 436.444C261.971 435.821 262.07 435.182 262.354 434.619C262.637 434.055 263.091 433.595 263.651 433.304C264.212 433.014 264.849 432.907 265.473 433C266.11 433.094 266.699 433.391 267.155 433.846C267.61 434.301 267.906 434.891 268.001 435.527Z" stroke="white" stroke-linecap="round" stroke-linejoin="round"/>
<path d="M269.125 431.875H269.132" stroke="white" stroke-width="2" stroke-linecap="round" stroke-linejoin="round"/>
<defs>
<clipPath id="clip0">
<rect width="16" height="16" fill="white" transform="translate(257.662 475)"/>
</clipPath>
</defs>
</svg>
