<svg width="77" height="15" viewBox="0 0 77 15" fill="none" xmlns="http://www.w3.org/2000/svg">
<path d="M7.34393 0L9.45909 4.43266L14.3284 5.07453L10.7663 8.45594L11.6606 13.2853L7.34393 10.9425L3.02728 13.2853L3.92153 8.45594L0.359437 5.07453L5.22877 4.43266L7.34393 0Z" fill="#FFCC48"/>
<path d="M22.9221 0L25.0372 4.43266L29.9065 5.07453L26.3445 8.45594L27.2387 13.2853L22.9221 10.9425L18.6054 13.2853L19.4997 8.45594L15.9376 5.07453L20.8069 4.43266L22.9221 0Z" fill="#FFCC48"/>
<path d="M38.5002 0L40.6153 4.43266L45.4847 5.07453L41.9226 8.45594L42.8168 13.2853L38.5002 10.9425L34.1835 13.2853L35.0778 8.45594L31.5157 5.07453L36.385 4.43266L38.5002 0Z" fill="#FFCC48"/>
<path d="M54.0783 0L56.1935 4.43266L61.0628 5.07453L57.5007 8.45594L58.395 13.2853L54.0783 10.9425L49.7617 13.2853L50.6559 8.45594L47.0938 5.07453L51.9631 4.43266L54.0783 0Z" fill="#FFCC48"/>
<path d="M69.6564 0L71.7716 4.43266L76.6409 5.07453L73.0788 8.45594L73.9731 13.2853L69.6564 10.9425L65.3398 13.2853L66.234 8.45594L62.6719 5.07453L67.5413 4.43266L69.6564 0Z" fill="#E7E7E7"/>
<path d="M69.6564 0L69.6564 4.43266V8.67919L69.6564 10.237V10.9425L65.3397 13.2853L66.234 8.45594L62.6719 5.07453L67.5412 4.43266L69.6564 0Z" fill="#FFCC48"/>
</svg>
